<svg xmlns="http://www.w3.org/2000/svg" width="940" height="360" viewBox="0 0 9400 3600" role="img" aria-labelledby="title desc">
  <title id="title">BMW 2 Series Gran Coupe 측면 실제 크기 비교 이미지</title>
  <desc id="desc">4545 x 1800 x 1445 mm</desc>
  <g transform="translate(300, 0)">
    <ellipse cx="2272.5" cy="3198.832" rx="2136.15" ry="95" fill="#10231c" opacity="0.16"/>
    <path d="M 114 2895 C 364 2668, 773 2509, 1273 2422 C 1682 1960, 2318 1786, 3000 1989 C 3409 2306, 4000 2422, 4431 2895 Z" fill="#1b765d" stroke="#0d3e33" stroke-width="46" stroke-linejoin="round"/>
    <path d="M 114 2895 C 364 2668, 773 2509, 1273 2422 C 1682 1960, 2318 1786, 3000 1989 C 3409 2306, 4000 2422, 4431 2895 Z" fill="url(#paint)" opacity="0.28"/>
    <path d="M 1545 2335 C 1954 2017, 2454 1931, 2909 2162 L 3227 2364 Z" fill="#c7e7ec" stroke="#0d3e33" stroke-width="34" stroke-linejoin="round"/>
    <path d="M 3136 2436 L 4091 2567" fill="none" stroke="#0d3e33" stroke-width="28" stroke-linecap="round" opacity="0.65"/>
    <path d="M 2363 2350 L 2363 2895" fill="none" stroke="#0d3e33" stroke-width="24" stroke-linecap="round" opacity="0.55"/>
    
    <path d="M 818.1 2826.6 L 3817.7999999999997 2826.6" fill="none" stroke="#dbe5dc" stroke-width="30" stroke-linecap="round" opacity="0.7"/>
    <rect x="159.07500000000002" y="2667.65" width="204.525" height="108.375" rx="16" fill="#d64d37" opacity="0.9"/>
    <rect x="4135.95" y="2638.75" width="227.25" height="101.15" rx="16" fill="#f1e6b0" opacity="0.95"/>
    <g>
    <circle cx="938" cy="3000" r="231.20000000000002" fill="#161d1a"/>
    <circle cx="938" cy="3000" r="166.464" fill="#27312d"/>
    <circle cx="938" cy="3000" r="87.85600000000001" fill="#dbe5dc"/>
    <circle cx="938" cy="3000" r="34.68" fill="#0d3e33"/>
  </g>
    <g>
    <circle cx="3608" cy="3000" r="231.20000000000002" fill="#161d1a"/>
    <circle cx="3608" cy="3000" r="166.464" fill="#27312d"/>
    <circle cx="3608" cy="3000" r="87.85600000000001" fill="#dbe5dc"/>
    <circle cx="3608" cy="3000" r="34.68" fill="#0d3e33"/>
  </g>
    <path d="M 614.3199999999999 2972.256 C 706.8 2717.936, 1169.2 2717.936, 1261.68 2972.256" fill="none" stroke="#0d3e33" stroke-width="34" stroke-linecap="round"/>
    <path d="M 3284.32 2972.256 C 3376.8 2717.936, 3839.2 2717.936, 3931.68 2972.256" fill="none" stroke="#0d3e33" stroke-width="34" stroke-linecap="round"/>
  </g>
  <defs>
    <linearGradient id="paint" x1="0" x2="0" y1="0" y2="1">
      <stop offset="0" stop-color="#ffffff"/>
      <stop offset="0.52" stop-color="#ffffff" stop-opacity="0.18"/>
      <stop offset="1" stop-color="#000000" stop-opacity="0.26"/>
    </linearGradient>
  </defs>
</svg>
