<svg xmlns="http://www.w3.org/2000/svg" width="940" height="360" viewBox="0 0 9400 3600" role="img" aria-labelledby="title desc">
  <title id="title">BMW 5 Series 측면 실제 크기 비교 이미지</title>
  <desc id="desc">5060 x 1900 x 1515 mm</desc>
  <g transform="translate(300, 0)">
    <ellipse cx="2530" cy="3208.464" rx="2378.2" ry="95" fill="#10231c" opacity="0.16"/>
    <path d="M 127 2894 C 405 2652, 860 2485, 1417 2394 C 1872 1909, 2581 1727, 3340 1940 C 3795 2273, 4453 2394, 4933 2894 Z" fill="#1c6f6a" stroke="#123f3d" stroke-width="46" stroke-linejoin="round"/>
    <path d="M 127 2894 C 405 2652, 860 2485, 1417 2394 C 1872 1909, 2581 1727, 3340 1940 C 3795 2273, 4453 2394, 4933 2894 Z" fill="url(#paint)" opacity="0.28"/>
    <path d="M 1720 2303 C 2176 1970, 2732 1879, 3238 2121 L 3593 2333 Z" fill="#c9e7ef" stroke="#123f3d" stroke-width="34" stroke-linejoin="round"/>
    <path d="M 3491 2409 L 4554 2546" fill="none" stroke="#123f3d" stroke-width="28" stroke-linecap="round" opacity="0.65"/>
    <path d="M 2631 2318 L 2631 2894" fill="none" stroke="#123f3d" stroke-width="24" stroke-linecap="round" opacity="0.55"/>
    
    <path d="M 910.8 2818.2 L 4250.4 2818.2" fill="none" stroke="#dce5e2" stroke-width="30" stroke-linecap="round" opacity="0.7"/>
    <rect x="177.10000000000002" y="2651.55" width="227.7" height="113.625" rx="16" fill="#d64d37" opacity="0.9"/>
    <rect x="4604.6" y="2621.25" width="253" height="106.05000000000001" rx="16" fill="#f1e6b0" opacity="0.95"/>
    <g>
    <circle cx="1033" cy="3000" r="242.4" fill="#161d1a"/>
    <circle cx="1033" cy="3000" r="174.528" fill="#27312d"/>
    <circle cx="1033" cy="3000" r="92.11200000000001" fill="#dce5e2"/>
    <circle cx="1033" cy="3000" r="36.36" fill="#123f3d"/>
  </g>
    <g>
    <circle cx="4028" cy="3000" r="242.4" fill="#161d1a"/>
    <circle cx="4028" cy="3000" r="174.528" fill="#27312d"/>
    <circle cx="4028" cy="3000" r="92.11200000000001" fill="#dce5e2"/>
    <circle cx="4028" cy="3000" r="36.36" fill="#123f3d"/>
  </g>
    <path d="M 693.64 2970.912 C 790.6 2704.272, 1275.4 2704.272, 1372.3600000000001 2970.912" fill="none" stroke="#123f3d" stroke-width="34" stroke-linecap="round"/>
    <path d="M 3688.64 2970.912 C 3785.6 2704.272, 4270.4 2704.272, 4367.36 2970.912" fill="none" stroke="#123f3d" stroke-width="34" stroke-linecap="round"/>
  </g>
  <defs>
    <linearGradient id="paint" x1="0" x2="0" y1="0" y2="1">
      <stop offset="0" stop-color="#ffffff"/>
      <stop offset="0.52" stop-color="#ffffff" stop-opacity="0.18"/>
      <stop offset="1" stop-color="#000000" stop-opacity="0.26"/>
    </linearGradient>
  </defs>
</svg>
