<svg xmlns="http://www.w3.org/2000/svg" width="940" height="360" viewBox="0 0 9400 3600" role="img" aria-labelledby="title desc">
  <title id="title">기아 K8 측면 실제 크기 비교 이미지</title>
  <desc id="desc">5050 x 1880 x 1455 mm</desc>
  <g transform="translate(300, 0)">
    <ellipse cx="2525" cy="3200.208" rx="2373.5" ry="95" fill="#10231c" opacity="0.16"/>
    <path d="M 126 2895 C 505 2680, 1111 2520, 1818 2433 C 2273 2011, 3030 1894, 3687 2229 C 4242 2345, 4747 2549, 4924 2895 Z" fill="#1c6f6a" stroke="#123f3d" stroke-width="46" stroke-linejoin="round"/>
    <path d="M 126 2895 C 505 2680, 1111 2520, 1818 2433 C 2273 2011, 3030 1894, 3687 2229 C 4242 2345, 4747 2549, 4924 2895 Z" fill="url(#paint)" opacity="0.28"/>
    <path d="M 1869 2345 C 2323 2040, 2980 1996, 3535 2287 L 3838 2433 L 1717 2433 Z" fill="#c9e7ef" stroke="#123f3d" stroke-width="34" stroke-linejoin="round"/>
    <path d="M 3636 2476 L 4596 2607" fill="none" stroke="#123f3d" stroke-width="28" stroke-linecap="round" opacity="0.65"/>
    <path d="M 2727 2418 L 2727 2895" fill="none" stroke="#123f3d" stroke-width="24" stroke-linecap="round" opacity="0.55"/>
    <path d="M 758 2709 C 2121 2796, 3434 2767, 4545 2651" fill="none" stroke="#123f3d" stroke-width="22" stroke-linecap="round" opacity="0.28"/>
    <path d="M 909 2825.4 L 4242 2825.4" fill="none" stroke="#dce5e2" stroke-width="30" stroke-linecap="round" opacity="0.7"/>
    <rect x="176.75000000000003" y="2665.35" width="227.25" height="109.125" rx="16" fill="#d64d37" opacity="0.9"/>
    <rect x="4595.5" y="2636.25" width="252.5" height="101.85000000000001" rx="16" fill="#f1e6b0" opacity="0.95"/>
    <g>
    <circle cx="1078" cy="3000" r="232.8" fill="#161d1a"/>
    <circle cx="1078" cy="3000" r="167.616" fill="#27312d"/>
    <circle cx="1078" cy="3000" r="88.464" fill="#dce5e2"/>
    <circle cx="1078" cy="3000" r="34.92" fill="#123f3d"/>
  </g>
    <g>
    <circle cx="3973" cy="3000" r="232.8" fill="#161d1a"/>
    <circle cx="3973" cy="3000" r="167.616" fill="#27312d"/>
    <circle cx="3973" cy="3000" r="88.464" fill="#dce5e2"/>
    <circle cx="3973" cy="3000" r="34.92" fill="#123f3d"/>
  </g>
    <path d="M 752.0799999999999 2972.064 C 845.2 2715.984, 1310.8 2715.984, 1403.92 2972.064" fill="none" stroke="#123f3d" stroke-width="34" stroke-linecap="round"/>
    <path d="M 3647.08 2972.064 C 3740.2 2715.984, 4205.8 2715.984, 4298.92 2972.064" fill="none" stroke="#123f3d" stroke-width="34" stroke-linecap="round"/>
  </g>
  <defs>
    <linearGradient id="paint" x1="0" x2="0" y1="0" y2="1">
      <stop offset="0" stop-color="#ffffff"/>
      <stop offset="0.52" stop-color="#ffffff" stop-opacity="0.18"/>
      <stop offset="1" stop-color="#000000" stop-opacity="0.26"/>
    </linearGradient>
  </defs>
</svg>
