<svg xmlns="http://www.w3.org/2000/svg" width="940" height="360" viewBox="0 0 9400 3600" role="img" aria-labelledby="title desc">
  <title id="title">마세라티 MC20 측면 실제 크기 비교 이미지</title>
  <desc id="desc">4670 x 1965 x 1225 mm</desc>
  <g transform="translate(300, 0)">
    <ellipse cx="2335" cy="3168.56" rx="2194.9" ry="95" fill="#10231c" opacity="0.16"/>
    <path d="M 117 2895 C 467 2694, 1027 2584, 1588 2535 C 1961 2167, 2662 2081, 3222 2473 C 3876 2535, 4390 2669, 4553 2895 Z" fill="#205f72" stroke="#123a45" stroke-width="46" stroke-linejoin="round"/>
    <path d="M 117 2895 C 467 2694, 1027 2584, 1588 2535 C 1961 2167, 2662 2081, 3222 2473 C 3876 2535, 4390 2669, 4553 2895 Z" fill="url(#paint)" opacity="0.28"/>
    <path d="M 1821 2473 C 2195 2216, 2709 2192, 3082 2473 Z" fill="#d2e8f2" stroke="#123a45" stroke-width="34" stroke-linejoin="round"/>
    <path d="M 3222 2547 L 4250 2669" fill="none" stroke="#123a45" stroke-width="28" stroke-linecap="round" opacity="0.65"/>
    <path d="M 2569 2486 L 2569 2895" fill="none" stroke="#123a45" stroke-width="24" stroke-linecap="round" opacity="0.55"/>
    
    <path d="M 840.6 2853 L 3922.7999999999997 2853" fill="none" stroke="#dce7eb" stroke-width="30" stroke-linecap="round" opacity="0.7"/>
    <rect x="163.45000000000002" y="2718.25" width="210.15" height="91.875" rx="16" fill="#d64d37" opacity="0.9"/>
    <rect x="4249.7" y="2693.75" width="233.5" height="85.75000000000001" rx="16" fill="#f1e6b0" opacity="0.95"/>
    <g>
    <circle cx="985" cy="3000" r="196" fill="#171d1b"/>
    <circle cx="985" cy="3000" r="141.12" fill="#27312d"/>
    <circle cx="985" cy="3000" r="74.48" fill="#dce7eb"/>
    <circle cx="985" cy="3000" r="29.4" fill="#123a45"/>
  </g>
    <g>
    <circle cx="3685" cy="3000" r="196" fill="#171d1b"/>
    <circle cx="3685" cy="3000" r="141.12" fill="#27312d"/>
    <circle cx="3685" cy="3000" r="74.48" fill="#dce7eb"/>
    <circle cx="3685" cy="3000" r="29.4" fill="#123a45"/>
  </g>
    <path d="M 710.6 2976.48 C 789 2760.88, 1181 2760.88, 1259.4 2976.48" fill="none" stroke="#123a45" stroke-width="34" stroke-linecap="round"/>
    <path d="M 3410.6 2976.48 C 3489 2760.88, 3881 2760.88, 3959.4 2976.48" fill="none" stroke="#123a45" stroke-width="34" stroke-linecap="round"/>
  </g>
  <defs>
    <linearGradient id="paint" x1="0" x2="0" y1="0" y2="1">
      <stop offset="0" stop-color="#ffffff"/>
      <stop offset="0.52" stop-color="#ffffff" stop-opacity="0.18"/>
      <stop offset="1" stop-color="#000000" stop-opacity="0.26"/>
    </linearGradient>
  </defs>
</svg>
