<svg xmlns="http://www.w3.org/2000/svg" width="940" height="360" viewBox="0 0 9400 3600" role="img" aria-labelledby="title desc">
  <title id="title">마세라티 Grecale 측면 실제 크기 비교 이미지</title>
  <desc id="desc">4850 x 1980 x 1665 mm</desc>
  <g transform="translate(300, 0)">
    <ellipse cx="2425" cy="3229.104" rx="2279.5" ry="95" fill="#10231c" opacity="0.16"/>
    <path d="M 121 2883 C 340 2534, 631 2334, 1164 2201 L 1649 1701 C 2231 1502, 3250 1518, 3832 2084 C 4414 2184, 4705 2434, 4729 2883 Z" fill="#266f52" stroke="#123b30" stroke-width="46" stroke-linejoin="round"/>
    <path d="M 121 2883 C 340 2534, 631 2334, 1164 2201 L 1649 1701 C 2231 1502, 3250 1518, 3832 2084 C 4414 2184, 4705 2434, 4729 2883 Z" fill="url(#paint)" opacity="0.28"/>
    <path d="M 1552 2084 L 1988 1735 C 2425 1635, 3153 1651, 3589 2084 Z" fill="#d3e9ef" stroke="#123b30" stroke-width="34" stroke-linejoin="round"/>
    <path d="M 3686 2201 L 4414 2351" fill="none" stroke="#123b30" stroke-width="28" stroke-linecap="round" opacity="0.65"/>
    <path d="M 2668 2068 L 2668 2883" fill="none" stroke="#123b30" stroke-width="24" stroke-linecap="round" opacity="0.55"/>
    
    <path d="M 873 2800.2 L 4074 2800.2" fill="none" stroke="#dce6da" stroke-width="30" stroke-linecap="round" opacity="0.7"/>
    <rect x="169.75000000000003" y="2617.05" width="218.25" height="124.875" rx="16" fill="#d64d37" opacity="0.9"/>
    <rect x="4413.5" y="2583.75" width="242.5" height="116.55000000000001" rx="16" fill="#f1e6b0" opacity="0.95"/>
    <g>
    <circle cx="974" cy="3000" r="266.4" fill="#171d1b"/>
    <circle cx="974" cy="3000" r="191.80799999999996" fill="#27312d"/>
    <circle cx="974" cy="3000" r="101.232" fill="#dce6da"/>
    <circle cx="974" cy="3000" r="39.959999999999994" fill="#123b30"/>
  </g>
    <g>
    <circle cx="3876" cy="3000" r="266.4" fill="#171d1b"/>
    <circle cx="3876" cy="3000" r="191.80799999999996" fill="#27312d"/>
    <circle cx="3876" cy="3000" r="101.232" fill="#dce6da"/>
    <circle cx="3876" cy="3000" r="39.959999999999994" fill="#123b30"/>
  </g>
    <path d="M 601.0400000000001 2968.032 C 707.6 2674.992, 1240.4 2674.992, 1346.96 2968.032" fill="none" stroke="#123b30" stroke-width="34" stroke-linecap="round"/>
    <path d="M 3503.04 2968.032 C 3609.6 2674.992, 4142.4 2674.992, 4248.96 2968.032" fill="none" stroke="#123b30" stroke-width="34" stroke-linecap="round"/>
  </g>
  <defs>
    <linearGradient id="paint" x1="0" x2="0" y1="0" y2="1">
      <stop offset="0" stop-color="#ffffff"/>
      <stop offset="0.52" stop-color="#ffffff" stop-opacity="0.18"/>
      <stop offset="1" stop-color="#000000" stop-opacity="0.26"/>
    </linearGradient>
  </defs>
</svg>
