<svg xmlns="http://www.w3.org/2000/svg" width="940" height="360" viewBox="0 0 9400 3600" role="img" aria-labelledby="title desc">
  <title id="title">벤츠 C-Class 측면 실제 크기 비교 이미지</title>
  <desc id="desc">4755 x 1820 x 1440 mm</desc>
  <g transform="translate(300, 0)">
    <ellipse cx="2377.5" cy="3198.1440000000002" rx="2234.85" ry="95" fill="#10231c" opacity="0.16"/>
    <path d="M 119 2895 C 380 2669, 808 2510, 1331 2424 C 1759 1963, 2425 1790, 3138 1992 C 3566 2309, 4184 2424, 4636 2895 Z" fill="#1b765d" stroke="#0d3e33" stroke-width="46" stroke-linejoin="round"/>
    <path d="M 119 2895 C 380 2669, 808 2510, 1331 2424 C 1759 1963, 2425 1790, 3138 1992 C 3566 2309, 4184 2424, 4636 2895 Z" fill="url(#paint)" opacity="0.28"/>
    <path d="M 1617 2338 C 2045 2021, 2568 1934, 3043 2165 L 3376 2366 Z" fill="#c7e7ec" stroke="#0d3e33" stroke-width="34" stroke-linejoin="round"/>
    <path d="M 3281 2438 L 4280 2568" fill="none" stroke="#0d3e33" stroke-width="28" stroke-linecap="round" opacity="0.65"/>
    <path d="M 2473 2352 L 2473 2895" fill="none" stroke="#0d3e33" stroke-width="24" stroke-linecap="round" opacity="0.55"/>
    
    <path d="M 855.9 2827.2 L 3994.2 2827.2" fill="none" stroke="#dbe5dc" stroke-width="30" stroke-linecap="round" opacity="0.7"/>
    <rect x="166.425" y="2668.8" width="213.975" height="108" rx="16" fill="#d64d37" opacity="0.9"/>
    <rect x="4327.05" y="2640" width="237.75" height="100.80000000000001" rx="16" fill="#f1e6b0" opacity="0.95"/>
    <g>
    <circle cx="945" cy="3000" r="230.4" fill="#161d1a"/>
    <circle cx="945" cy="3000" r="165.888" fill="#27312d"/>
    <circle cx="945" cy="3000" r="87.552" fill="#dbe5dc"/>
    <circle cx="945" cy="3000" r="34.56" fill="#0d3e33"/>
  </g>
    <g>
    <circle cx="3810" cy="3000" r="230.4" fill="#161d1a"/>
    <circle cx="3810" cy="3000" r="165.888" fill="#27312d"/>
    <circle cx="3810" cy="3000" r="87.552" fill="#dbe5dc"/>
    <circle cx="3810" cy="3000" r="34.56" fill="#0d3e33"/>
  </g>
    <path d="M 622.44 2972.352 C 714.6 2718.912, 1175.4 2718.912, 1267.56 2972.352" fill="none" stroke="#0d3e33" stroke-width="34" stroke-linecap="round"/>
    <path d="M 3487.44 2972.352 C 3579.6 2718.912, 4040.4 2718.912, 4132.56 2972.352" fill="none" stroke="#0d3e33" stroke-width="34" stroke-linecap="round"/>
  </g>
  <defs>
    <linearGradient id="paint" x1="0" x2="0" y1="0" y2="1">
      <stop offset="0" stop-color="#ffffff"/>
      <stop offset="0.52" stop-color="#ffffff" stop-opacity="0.18"/>
      <stop offset="1" stop-color="#000000" stop-opacity="0.26"/>
    </linearGradient>
  </defs>
</svg>
