<svg xmlns="http://www.w3.org/2000/svg" width="940" height="360" viewBox="0 0 9400 3600" role="img" aria-labelledby="title desc">
  <title id="title">볼보 EX90 측면 실제 크기 비교 이미지</title>
  <desc id="desc">5040 x 1965 x 1740 mm</desc>
  <g transform="translate(300, 0)">
    <ellipse cx="2520" cy="3239.424" rx="2368.7999999999997" ry="95" fill="#10231c" opacity="0.16"/>
    <path d="M 126 2878 C 353 2513, 655 2304, 1210 2165 L 1714 1643 C 2318 1434, 3377 1451, 3982 2043 C 4586 2147, 4889 2408, 4914 2878 Z" fill="#266f52" stroke="#123b30" stroke-width="46" stroke-linejoin="round"/>
    <path d="M 126 2878 C 353 2513, 655 2304, 1210 2165 L 1714 1643 C 2318 1434, 3377 1451, 3982 2043 C 4586 2147, 4889 2408, 4914 2878 Z" fill="url(#paint)" opacity="0.28"/>
    <path d="M 1613 2043 L 2066 1678 C 2520 1573, 3276 1591, 3730 2043 Z" fill="#d3e9ef" stroke="#123b30" stroke-width="34" stroke-linejoin="round"/>
    <path d="M 3830 2165 L 4586 2321" fill="none" stroke="#123b30" stroke-width="28" stroke-linecap="round" opacity="0.65"/>
    <path d="M 2772 2026 L 2772 2878" fill="none" stroke="#123b30" stroke-width="24" stroke-linecap="round" opacity="0.55"/>
    
    <path d="M 907.1999999999999 2791.2 L 4233.599999999999 2791.2" fill="none" stroke="#dce6da" stroke-width="30" stroke-linecap="round" opacity="0.7"/>
    <rect x="176.4" y="2599.8" width="226.79999999999998" height="130.5" rx="16" fill="#d64d37" opacity="0.9"/>
    <rect x="4586.400000000001" y="2565" width="252" height="121.80000000000001" rx="16" fill="#f1e6b0" opacity="0.95"/>
    <g>
    <circle cx="1028" cy="3000" r="278.40000000000003" fill="#171d1b"/>
    <circle cx="1028" cy="3000" r="200.448" fill="#27312d"/>
    <circle cx="1028" cy="3000" r="105.79200000000002" fill="#dce6da"/>
    <circle cx="1028" cy="3000" r="41.760000000000005" fill="#123b30"/>
  </g>
    <g>
    <circle cx="4012" cy="3000" r="278.40000000000003" fill="#171d1b"/>
    <circle cx="4012" cy="3000" r="200.448" fill="#27312d"/>
    <circle cx="4012" cy="3000" r="105.79200000000002" fill="#dce6da"/>
    <circle cx="4012" cy="3000" r="41.760000000000005" fill="#123b30"/>
  </g>
    <path d="M 638.24 2966.592 C 749.5999999999999 2660.352, 1306.4 2660.352, 1417.76 2966.592" fill="none" stroke="#123b30" stroke-width="34" stroke-linecap="round"/>
    <path d="M 3622.24 2966.592 C 3733.6 2660.352, 4290.4 2660.352, 4401.76 2966.592" fill="none" stroke="#123b30" stroke-width="34" stroke-linecap="round"/>
  </g>
  <defs>
    <linearGradient id="paint" x1="0" x2="0" y1="0" y2="1">
      <stop offset="0" stop-color="#ffffff"/>
      <stop offset="0.52" stop-color="#ffffff" stop-opacity="0.18"/>
      <stop offset="1" stop-color="#000000" stop-opacity="0.26"/>
    </linearGradient>
  </defs>
</svg>
