<svg xmlns="http://www.w3.org/2000/svg" width="940" height="360" viewBox="0 0 9400 3600" role="img" aria-labelledby="title desc">
  <title id="title">볼보 EX30 측면 실제 크기 비교 이미지</title>
  <desc id="desc">4233 x 1836 x 1555 mm</desc>
  <g transform="translate(300, 0)">
    <ellipse cx="2116.5" cy="3213.968" rx="1989.51" ry="95" fill="#10231c" opacity="0.16"/>
    <path d="M 106 2891 C 339 2642, 720 2471, 1185 2378 C 1566 1880, 2159 1694, 2794 1912 C 3175 2254, 3725 2378, 4127 2891 Z" fill="#1b765d" stroke="#0d3e33" stroke-width="46" stroke-linejoin="round"/>
    <path d="M 106 2891 C 339 2642, 720 2471, 1185 2378 C 1566 1880, 2159 1694, 2794 1912 C 3175 2254, 3725 2378, 4127 2891 Z" fill="url(#paint)" opacity="0.28"/>
    <path d="M 1439 2285 C 1820 1943, 2286 1849, 2709 2098 L 3005 2316 Z" fill="#c7e7ec" stroke="#0d3e33" stroke-width="34" stroke-linejoin="round"/>
    <path d="M 2921 2394 L 3810 2534" fill="none" stroke="#0d3e33" stroke-width="28" stroke-linecap="round" opacity="0.65"/>
    <path d="M 2201 2300 L 2201 2891" fill="none" stroke="#0d3e33" stroke-width="24" stroke-linecap="round" opacity="0.55"/>
    
    <path d="M 761.9399999999999 2813.4 L 3555.72 2813.4" fill="none" stroke="#dbe5dc" stroke-width="30" stroke-linecap="round" opacity="0.7"/>
    <rect x="148.155" y="2642.35" width="190.48499999999999" height="116.625" rx="16" fill="#d64d37" opacity="0.9"/>
    <rect x="3852.03" y="2611.25" width="211.65" height="108.85000000000001" rx="16" fill="#f1e6b0" opacity="0.95"/>
    <g>
    <circle cx="791" cy="3000" r="248.8" fill="#161d1a"/>
    <circle cx="791" cy="3000" r="179.136" fill="#27312d"/>
    <circle cx="791" cy="3000" r="94.54400000000001" fill="#dbe5dc"/>
    <circle cx="791" cy="3000" r="37.32" fill="#0d3e33"/>
  </g>
    <g>
    <circle cx="3442" cy="3000" r="248.8" fill="#161d1a"/>
    <circle cx="3442" cy="3000" r="179.136" fill="#27312d"/>
    <circle cx="3442" cy="3000" r="94.54400000000001" fill="#dbe5dc"/>
    <circle cx="3442" cy="3000" r="37.32" fill="#0d3e33"/>
  </g>
    <path d="M 442.68 2970.144 C 542.2 2696.464, 1039.8 2696.464, 1139.32 2970.144" fill="none" stroke="#0d3e33" stroke-width="34" stroke-linecap="round"/>
    <path d="M 3093.68 2970.144 C 3193.2 2696.464, 3690.8 2696.464, 3790.32 2970.144" fill="none" stroke="#0d3e33" stroke-width="34" stroke-linecap="round"/>
  </g>
  <defs>
    <linearGradient id="paint" x1="0" x2="0" y1="0" y2="1">
      <stop offset="0" stop-color="#ffffff"/>
      <stop offset="0.52" stop-color="#ffffff" stop-opacity="0.18"/>
      <stop offset="1" stop-color="#000000" stop-opacity="0.26"/>
    </linearGradient>
  </defs>
</svg>
