<svg xmlns="http://www.w3.org/2000/svg" width="940" height="360" viewBox="0 0 9400 3600" role="img" aria-labelledby="title desc">
  <title id="title">아우디 Q7 측면 실제 크기 비교 이미지</title>
  <desc id="desc">5070 x 1970 x 1705 mm</desc>
  <g transform="translate(300, 0)">
    <ellipse cx="2535" cy="3234.608" rx="2382.9" ry="95" fill="#10231c" opacity="0.16"/>
    <path d="M 127 2881 C 355 2523, 659 2318, 1217 2182 L 1724 1670 C 2332 1466, 3397 1483, 4005 2062 C 4614 2165, 4918 2420, 4943 2881 Z" fill="#266f52" stroke="#123b30" stroke-width="46" stroke-linejoin="round"/>
    <path d="M 127 2881 C 355 2523, 659 2318, 1217 2182 L 1724 1670 C 2332 1466, 3397 1483, 4005 2062 C 4614 2165, 4918 2420, 4943 2881 Z" fill="url(#paint)" opacity="0.28"/>
    <path d="M 1622 2062 L 2079 1704 C 2535 1602, 3296 1619, 3752 2062 Z" fill="#d3e9ef" stroke="#123b30" stroke-width="34" stroke-linejoin="round"/>
    <path d="M 3853 2182 L 4614 2335" fill="none" stroke="#123b30" stroke-width="28" stroke-linecap="round" opacity="0.65"/>
    <path d="M 2789 2045 L 2789 2881" fill="none" stroke="#123b30" stroke-width="24" stroke-linecap="round" opacity="0.55"/>
    
    <path d="M 912.6 2795.4 L 4258.8 2795.4" fill="none" stroke="#dce6da" stroke-width="30" stroke-linecap="round" opacity="0.7"/>
    <rect x="177.45000000000002" y="2607.85" width="228.15" height="127.875" rx="16" fill="#d64d37" opacity="0.9"/>
    <rect x="4613.7" y="2573.75" width="253.5" height="119.35000000000001" rx="16" fill="#f1e6b0" opacity="0.95"/>
    <g>
    <circle cx="1036" cy="3000" r="272.8" fill="#171d1b"/>
    <circle cx="1036" cy="3000" r="196.416" fill="#27312d"/>
    <circle cx="1036" cy="3000" r="103.664" fill="#dce6da"/>
    <circle cx="1036" cy="3000" r="40.92" fill="#123b30"/>
  </g>
    <g>
    <circle cx="4034" cy="3000" r="272.8" fill="#171d1b"/>
    <circle cx="4034" cy="3000" r="196.416" fill="#27312d"/>
    <circle cx="4034" cy="3000" r="103.664" fill="#dce6da"/>
    <circle cx="4034" cy="3000" r="40.92" fill="#123b30"/>
  </g>
    <path d="M 654.0799999999999 2967.264 C 763.2 2667.184, 1308.8 2667.184, 1417.92 2967.264" fill="none" stroke="#123b30" stroke-width="34" stroke-linecap="round"/>
    <path d="M 3652.08 2967.264 C 3761.2 2667.184, 4306.8 2667.184, 4415.92 2967.264" fill="none" stroke="#123b30" stroke-width="34" stroke-linecap="round"/>
  </g>
  <defs>
    <linearGradient id="paint" x1="0" x2="0" y1="0" y2="1">
      <stop offset="0" stop-color="#ffffff"/>
      <stop offset="0.52" stop-color="#ffffff" stop-opacity="0.18"/>
      <stop offset="1" stop-color="#000000" stop-opacity="0.26"/>
    </linearGradient>
  </defs>
</svg>
