<svg xmlns="http://www.w3.org/2000/svg" width="940" height="360" viewBox="0 0 9400 3600" role="img" aria-labelledby="title desc">
  <title id="title">토요타 Crown 측면 실제 크기 비교 이미지</title>
  <desc id="desc">4980 x 1840 x 1540 mm</desc>
  <g transform="translate(300, 0)">
    <ellipse cx="2490" cy="3211.904" rx="2340.6" ry="95" fill="#10231c" opacity="0.16"/>
    <path d="M 125 2892 C 398 2646, 847 2476, 1394 2384 C 1843 1891, 2540 1706, 3287 1922 C 3735 2261, 4382 2384, 4855 2892 Z" fill="#1c6f6a" stroke="#123f3d" stroke-width="46" stroke-linejoin="round"/>
    <path d="M 125 2892 C 398 2646, 847 2476, 1394 2384 C 1843 1891, 2540 1706, 3287 1922 C 3735 2261, 4382 2384, 4855 2892 Z" fill="url(#paint)" opacity="0.28"/>
    <path d="M 1693 2292 C 2141 1953, 2689 1860, 3187 2107 L 3536 2322 Z" fill="#c9e7ef" stroke="#123f3d" stroke-width="34" stroke-linejoin="round"/>
    <path d="M 3436 2399 L 4482 2538" fill="none" stroke="#123f3d" stroke-width="28" stroke-linecap="round" opacity="0.65"/>
    <path d="M 2590 2307 L 2590 2892" fill="none" stroke="#123f3d" stroke-width="24" stroke-linecap="round" opacity="0.55"/>
    
    <path d="M 896.4 2815.2 L 4183.2 2815.2" fill="none" stroke="#dce5e2" stroke-width="30" stroke-linecap="round" opacity="0.7"/>
    <rect x="174.3" y="2645.8" width="224.1" height="115.5" rx="16" fill="#d64d37" opacity="0.9"/>
    <rect x="4531.8" y="2615" width="249" height="107.80000000000001" rx="16" fill="#f1e6b0" opacity="0.95"/>
    <g>
    <circle cx="1065" cy="3000" r="246.4" fill="#161d1a"/>
    <circle cx="1065" cy="3000" r="177.408" fill="#27312d"/>
    <circle cx="1065" cy="3000" r="93.632" fill="#dce5e2"/>
    <circle cx="1065" cy="3000" r="36.96" fill="#123f3d"/>
  </g>
    <g>
    <circle cx="3915" cy="3000" r="246.4" fill="#161d1a"/>
    <circle cx="3915" cy="3000" r="177.408" fill="#27312d"/>
    <circle cx="3915" cy="3000" r="93.632" fill="#dce5e2"/>
    <circle cx="3915" cy="3000" r="36.96" fill="#123f3d"/>
  </g>
    <path d="M 720.04 2970.432 C 818.6 2699.392, 1311.4 2699.392, 1409.96 2970.432" fill="none" stroke="#123f3d" stroke-width="34" stroke-linecap="round"/>
    <path d="M 3570.04 2970.432 C 3668.6 2699.392, 4161.4 2699.392, 4259.96 2970.432" fill="none" stroke="#123f3d" stroke-width="34" stroke-linecap="round"/>
  </g>
  <defs>
    <linearGradient id="paint" x1="0" x2="0" y1="0" y2="1">
      <stop offset="0" stop-color="#ffffff"/>
      <stop offset="0.52" stop-color="#ffffff" stop-opacity="0.18"/>
      <stop offset="1" stop-color="#000000" stop-opacity="0.26"/>
    </linearGradient>
  </defs>
</svg>
