<svg xmlns="http://www.w3.org/2000/svg" width="940" height="360" viewBox="0 0 9400 3600" role="img" aria-labelledby="title desc">
  <title id="title">현대 디 올 뉴 넥쏘 측면 실제 크기 비교 이미지</title>
  <desc id="desc">4750 x 1865 x 1640 mm</desc>
  <g transform="translate(300, 0)">
    <ellipse cx="2375" cy="3225.6639999999998" rx="2232.5" ry="95" fill="#10231c" opacity="0.16"/>
    <path d="M 119 2885 C 380 2623, 808 2442, 1330 2344 C 1758 1819, 2423 1622, 3135 1852 C 3563 2213, 4180 2344, 4631 2885 Z" fill="#1b765d" stroke="#0d3e33" stroke-width="46" stroke-linejoin="round"/>
    <path d="M 119 2885 C 380 2623, 808 2442, 1330 2344 C 1758 1819, 2423 1622, 3135 1852 C 3563 2213, 4180 2344, 4631 2885 Z" fill="url(#paint)" opacity="0.28"/>
    <path d="M 1615 2246 C 2043 1885, 2565 1786, 3040 2049 L 3373 2278 Z" fill="#c7e7ec" stroke="#0d3e33" stroke-width="34" stroke-linejoin="round"/>
    <path d="M 3277 2360 L 4275 2508" fill="none" stroke="#0d3e33" stroke-width="28" stroke-linecap="round" opacity="0.65"/>
    <path d="M 2470 2262 L 2470 2885" fill="none" stroke="#0d3e33" stroke-width="24" stroke-linecap="round" opacity="0.55"/>
    
    <path d="M 855 2803.2 L 3990 2803.2" fill="none" stroke="#dbe5dc" stroke-width="30" stroke-linecap="round" opacity="0.7"/>
    <rect x="166.25000000000003" y="2622.8" width="213.75" height="123" rx="16" fill="#d64d37" opacity="0.9"/>
    <rect x="4322.5" y="2590" width="237.5" height="114.80000000000001" rx="16" fill="#f1e6b0" opacity="0.95"/>
    <g>
    <circle cx="980" cy="3000" r="262.4" fill="#161d1a"/>
    <circle cx="980" cy="3000" r="188.92799999999997" fill="#27312d"/>
    <circle cx="980" cy="3000" r="99.71199999999999" fill="#dbe5dc"/>
    <circle cx="980" cy="3000" r="39.35999999999999" fill="#0d3e33"/>
  </g>
    <g>
    <circle cx="3770" cy="3000" r="262.4" fill="#161d1a"/>
    <circle cx="3770" cy="3000" r="188.92799999999997" fill="#27312d"/>
    <circle cx="3770" cy="3000" r="99.71199999999999" fill="#dbe5dc"/>
    <circle cx="3770" cy="3000" r="39.35999999999999" fill="#0d3e33"/>
  </g>
    <path d="M 612.6400000000001 2968.512 C 717.6 2679.872, 1242.4 2679.872, 1347.36 2968.512" fill="none" stroke="#0d3e33" stroke-width="34" stroke-linecap="round"/>
    <path d="M 3402.64 2968.512 C 3507.6 2679.872, 4032.4 2679.872, 4137.36 2968.512" fill="none" stroke="#0d3e33" stroke-width="34" stroke-linecap="round"/>
  </g>
  <defs>
    <linearGradient id="paint" x1="0" x2="0" y1="0" y2="1">
      <stop offset="0" stop-color="#ffffff"/>
      <stop offset="0.52" stop-color="#ffffff" stop-opacity="0.18"/>
      <stop offset="1" stop-color="#000000" stop-opacity="0.26"/>
    </linearGradient>
  </defs>
</svg>
